<svg width="20" height="20" viewBox="0 0 20 20" fill="none" xmlns="http://www.w3.org/2000/svg">
<path d="M9.16667 2.5H10.8333C11.2936 2.5 11.6667 2.8731 11.6667 3.33333V3.80732C11.6667 4.16382 11.9059 4.47354 12.2352 4.61024C12.5646 4.74699 12.9481 4.69487 13.2002 4.44269L13.5355 4.10742C13.8609 3.78199 14.3886 3.78199 14.714 4.10742L15.8925 5.28594C16.218 5.61137 16.218 6.13901 15.8925 6.46445L15.5573 6.79967C15.3051 7.05186 15.253 7.43539 15.3897 7.76479C15.5265 8.09406 15.8362 8.33333 16.1927 8.33333L16.6667 8.33333C17.1269 8.33333 17.5 8.70643 17.5 9.16667V10.8333C17.5 11.2936 17.1269 11.6667 16.6667 11.6667H16.1927C15.8362 11.6667 15.5265 11.9059 15.3898 12.2352C15.253 12.5646 15.3051 12.9481 15.5573 13.2003L15.8925 13.5355C16.218 13.861 16.218 14.3886 15.8925 14.714L14.714 15.8925C14.3886 16.218 13.861 16.218 13.5355 15.8925L13.2003 15.5573C12.9481 15.3051 12.5646 15.253 12.2352 15.3898C11.9059 15.5265 11.6667 15.8362 11.6667 16.1927V16.6667C11.6667 17.1269 11.2936 17.5 10.8333 17.5H9.16667C8.70643 17.5 8.33333 17.1269 8.33333 16.6667V16.1927C8.33333 15.8362 8.09406 15.5265 7.76479 15.3897C7.43539 15.253 7.05186 15.3051 6.79966 15.5573L6.46443 15.8925C6.139 16.218 5.61136 16.218 5.28592 15.8925L4.10741 14.714C3.78197 14.3886 3.78197 13.861 4.10741 13.5355L4.44269 13.2002C4.69487 12.9481 4.74699 12.5646 4.61024 12.2352C4.47354 11.9059 4.16382 11.6667 3.80732 11.6667H3.33333C2.8731 11.6667 2.5 11.2936 2.5 10.8333V9.16667C2.5 8.70643 2.8731 8.33333 3.33333 8.33333L3.80731 8.33333C4.16382 8.33333 4.47354 8.09406 4.61024 7.7648C4.747 7.43542 4.69488 7.0519 4.44269 6.79972L4.10742 6.46445C3.78199 6.13901 3.78199 5.61137 4.10742 5.28594L5.28594 4.10743C5.61137 3.78199 6.13901 3.78199 6.46445 4.10743L6.79971 4.44269C7.0519 4.69488 7.43542 4.747 7.7648 4.61024C8.09406 4.47354 8.33333 4.16381 8.33333 3.8073V3.33333C8.33333 2.8731 8.70643 2.5 9.16667 2.5Z" stroke="currentColor" stroke-width="1.3"/>
<path d="M11.6667 10C11.6667 10.9205 10.9205 11.6667 10 11.6667C9.07953 11.6667 8.33333 10.9205 8.33333 10C8.33333 9.07953 9.07953 8.33333 10 8.33333C10.9205 8.33333 11.6667 9.07953 11.6667 10Z" stroke="currentColor" stroke-width="1.3"/>
</svg>
