<svg width="20" height="20" viewBox="0 0 20 20" fill="none" xmlns="http://www.w3.org/2000/svg">
<path d="M9.75848 18H4.93098C3.86452 18 2.99999 17.1046 3 16L3.00007 3.99999C3.00008 2.89543 3.86461 2 4.93107 2H13.6208C14.6872 2 15.5517 2.89543 15.5517 4.00001V8.00002M6.37954 6.00001H12.1725M6.37954 9.00002H12.1725M12.1725 12.9617V15.4153C12.1725 16.6278 13.4207 17.7398 14.5914 17.7398C15.762 17.7398 17 16.6278 17 15.4153V12.316C17 11.6741 16.6437 11.0227 15.8512 11.0227C15.0033 11.0227 14.5914 11.6741 14.5914 12.316V15.2862M6.37954 12H9.27603" stroke="currentColor" stroke-width="1.3" stroke-linecap="round" stroke-linejoin="round"/>
</svg>
