<svg width="20" height="20" viewBox="0 0 20 20" fill="none" xmlns="http://www.w3.org/2000/svg">
<path d="M9.56241 3.00002H4.74998C3.78349 3.00002 3 3.78351 3 4.75V11.7502C3 12.7167 3.7835 13.5002 4.74999 13.5001L11.0648 13.5001L14.375 17V13.5002L15.2501 13.5001C16.2165 13.5001 17 12.7166 17 11.7502V9.00034M17 4.18771C17 5.39581 16.0206 6.37518 14.8125 6.37518C13.6044 6.37518 12.6251 5.39581 12.6251 4.18771C12.6251 2.97961 13.6044 2.00024 14.8125 2.00024C16.0206 2.00024 17 2.97961 17 4.18771Z" stroke="currentColor" stroke-width="1.3" stroke-linecap="round" stroke-linejoin="round"/>
<path d="M5.5 7.5H11.1628M5.5 10.3H9.1628" stroke="currentColor" stroke-width="1.3" stroke-linecap="round" stroke-linejoin="round"/>
</svg>
