<svg width="20" height="20" viewBox="0 0 20 20" fill="none" xmlns="http://www.w3.org/2000/svg">
<path d="M15.4088 12.3181C17.1159 12.3181 18.4998 13.702 18.4998 15.409V16.9545H16.9543M13.0907 9.12984C14.4238 8.78672 15.4088 7.57655 15.4088 6.13631C15.4088 4.69607 14.4238 3.4859 13.0907 3.14278M10.7725 6.13632C10.7725 7.84338 9.38864 9.22723 7.68157 9.22723C5.97451 9.22723 4.59066 7.84338 4.59066 6.13632C4.59066 4.42926 5.97451 3.04541 7.68157 3.04541C9.38864 3.04541 10.7725 4.42926 10.7725 6.13632ZM4.59066 12.3181H10.7725C12.4795 12.3181 13.8634 13.702 13.8634 15.409V16.9545H1.49976V15.409C1.49976 13.702 2.8836 12.3181 4.59066 12.3181Z" stroke="currentColor" stroke-width="1.20545" stroke-linecap="round" stroke-linejoin="round"/>
</svg>
