<svg width="18" height="18" viewBox="0 0 18 18" fill="none" xmlns="http://www.w3.org/2000/svg">
<path d="M15.0005 11.1251C15.9816 9.9988 16.5005 9 16.5005 9C16.5005 9 13.7732 3.75 9.00049 3.75C8.74457 3.75 8.49454 3.76509 8.25049 3.79366C7.99383 3.82371 7.74379 3.86866 7.50049 3.92664M9.00049 6.75C9.26346 6.75 9.5159 6.79512 9.75049 6.87803C10.3898 7.10399 10.8965 7.61069 11.1225 8.25C11.2054 8.48458 11.2505 8.73702 11.2505 9M2.25049 2.25L15.7505 15.75M9.00048 11.25C8.73751 11.25 8.48507 11.2049 8.25048 11.122C7.61117 10.896 7.10448 10.3893 6.87851 9.75C6.83588 9.62939 6.80324 9.50406 6.78159 9.375M3.11075 6.75C2.87956 7.00838 2.67225 7.26181 2.48947 7.5C1.84014 8.34618 1.50049 9 1.50049 9C1.50049 9 4.22776 14.25 9.00049 14.25C9.2564 14.25 9.50644 14.2349 9.75049 14.2063" stroke="currentColor" stroke-width="1.17" stroke-linecap="round" stroke-linejoin="round"/>
</svg>
