<svg width="20" height="20" viewBox="0 0 20 20" fill="none" xmlns="http://www.w3.org/2000/svg">
<path d="M13.8891 7.52513C14.2796 7.1346 14.2796 6.50144 13.8891 6.11091C13.4986 5.72039 12.8654 5.72039 12.4749 6.11091L13.182 6.81802L13.8891 7.52513ZM6.11091 12.4749C5.72039 12.8654 5.72039 13.4986 6.11091 13.8891C6.50144 14.2796 7.1346 14.2796 7.52513 13.8891L6.81802 13.182L6.11091 12.4749ZM12.4749 13.8891C12.8654 14.2796 13.4986 14.2796 13.8891 13.8891C14.2796 13.4986 14.2796 12.8654 13.8891 12.4749L13.182 13.182L12.4749 13.8891ZM7.52513 6.11091C7.1346 5.72039 6.50144 5.72039 6.11091 6.11091C5.72039 6.50144 5.72039 7.1346 6.11091 7.52513L6.81802 6.81802L7.52513 6.11091ZM19 10H18C18 14.4183 14.4183 18 10 18V19V20C15.5228 20 20 15.5228 20 10H19ZM10 19V18C5.58172 18 2 14.4183 2 10H1H0C0 15.5228 4.47715 20 10 20V19ZM1 10H2C2 5.58172 5.58172 2 10 2V1V0C4.47715 0 0 4.47715 0 10H1ZM10 1V2C14.4183 2 18 5.58172 18 10H19H20C20 4.47715 15.5228 0 10 0V1ZM13.182 6.81802L12.4749 6.11091L9.29289 9.29289L10 10L10.7071 10.7071L13.8891 7.52513L13.182 6.81802ZM10 10L9.29289 9.29289L6.11091 12.4749L6.81802 13.182L7.52513 13.8891L10.7071 10.7071L10 10ZM13.182 13.182L13.8891 12.4749L10.7071 9.29289L10 10L9.29289 10.7071L12.4749 13.8891L13.182 13.182ZM10 10L10.7071 9.29289L7.52513 6.11091L6.81802 6.81802L6.11091 7.52513L9.29289 10.7071L10 10Z" fill="#F04545"/>
</svg>
